<?xml version="1.0" encoding="utf-8"?>
<svg xmlns="http://www.w3.org/2000/svg" viewBox="0.269 0.055 19.043 20.978" width="19.043px" height="20.978px" xmlns:bx="https://boxy-svg.com"><defs><style type="text/css">
	.st0{fill:url(#SVGID_1_);}
	.st1{fill:#006C7D;}
	.st2{fill:#00499C;}
	.st3{fill:#00A65E;}
	.st4{fill-rule:evenodd;clip-rule:evenodd;fill:#000028;}
	.st5{fill-rule:evenodd;clip-rule:evenodd;fill:#D9784C;}
	.st6{fill:#D9784C;}
</style><bx:export><bx:file format="svg" path="anchor.svg"/></bx:export></defs><path class="st0" d="M 10.801 4.686 L 10.801 5.54 L 13.687 5.54 L 13.687 7.373 L 11.752 7.373 L 15.988 15.028 L 16.704 14.678 L 16.704 12.319 L 15.403 11.209 L 18.684 9.573 L 18.684 15.883 C 18.107 16.169 17.522 16.46 16.945 16.753 L 19.312 21.033 L 16.82 21.033 L 14.995 17.738 C 13.264 18.608 11.531 19.478 9.787 20.281 C 8.041 19.47 6.31 18.608 4.579 17.738 L 2.752 21.033 L 0.269 21.033 L 2.636 16.753 C 2.058 16.46 1.474 16.169 0.897 15.883 L 0.897 9.573 L 4.177 11.209 L 2.876 12.319 L 2.876 14.678 L 3.592 15.028 L 7.83 7.373 L 5.885 7.373 L 5.885 5.54 L 8.771 5.54 L 8.771 4.686 C 8.508 4.561 8.268 4.401 8.069 4.197 C 7.631 3.759 7.362 3.153 7.362 2.48 C 7.362 1.808 7.631 1.201 8.069 0.764 C 8.508 0.326 9.114 0.055 9.787 0.055 C 10.458 0.055 11.065 0.326 11.503 0.764 C 11.941 1.201 12.212 1.808 12.212 2.48 C 12.212 3.153 11.941 3.759 11.503 4.197 C 11.306 4.401 11.065 4.561 10.801 4.686 Z M 10.801 10.157 L 10.801 17.564 L 14.023 15.986 L 10.801 10.157 Z M 5.55 15.986 L 8.771 17.564 L 8.771 10.157 L 5.55 15.986 Z M 10.217 2.056 C 10.108 1.947 9.956 1.882 9.794 1.882 C 9.626 1.882 9.473 1.947 9.37 2.056 C 9.26 2.166 9.195 2.32 9.195 2.48 C 9.195 2.648 9.26 2.801 9.37 2.904 C 9.48 3.014 9.634 3.079 9.794 3.079 C 9.962 3.079 10.114 3.014 10.217 2.904 C 10.328 2.794 10.393 2.641 10.393 2.48 C 10.393 2.311 10.328 2.166 10.217 2.056 Z" style="fill: rgba(240, 246, 252, 0.596);" transform="matrix(1, 0, 0, 1.0000000000000002, -3.552713678800501e-15, 3.552713678800501e-15)"/><polygon class="st1" points="10.801 10.157 10.801 11.559 9.787 9.726 8.778 11.559 8.778 10.157 9.787 8.331 10.801 10.157" style="fill: rgba(240, 246, 252, 0.8);" transform="matrix(1, 0, 0, 1.0000000000000002, -3.552713678800501e-15, 3.552713678800501e-15)"/><path class="st2" d="M 4.221 18.396 C 3.57 18.067 2.92 17.738 2.27 17.411 L 2.636 16.753 C 3.286 17.081 3.936 17.411 4.586 17.738 L 4.221 18.396 Z" style="fill: rgba(240, 246, 252, 0.8);" transform="matrix(1, 0, 0, 1.0000000000000002, -3.552713678800501e-15, 3.552713678800501e-15)"/><path class="st3" d="M 16.945 16.753 L 17.311 17.411 C 16.659 17.738 16.009 18.067 15.359 18.396 L 14.995 17.738 C 15.645 17.411 16.295 17.081 16.945 16.753 Z" style="fill: rgba(240, 246, 252, 0.8);" transform="matrix(1, 0, 0, 1.0000000000000002, -3.552713678800501e-15, 3.552713678800501e-15)"/></svg>